<svg id="instagram" xmlns="http://www.w3.org/2000/svg" xmlns:xlink="http://www.w3.org/1999/xlink" width="39.91" height="39.91" viewBox="0 0 39.91 39.91">
  <defs>
    <radialGradient id="radial-gradient" cx="0.207" cy="1.202" r="1.514" gradientTransform="matrix(0.644, -0.765, 0.506, 0.425, -0.534, 0.849)" gradientUnits="objectBoundingBox">
      <stop offset="0.073" stop-color="#eacc7b"/>
      <stop offset="0.184" stop-color="#ecaa59"/>
      <stop offset="0.307" stop-color="#ef802e"/>
      <stop offset="0.358" stop-color="#ef6d3a"/>
      <stop offset="0.46" stop-color="#f04b50"/>
      <stop offset="0.516" stop-color="#f03e58"/>
      <stop offset="0.689" stop-color="#db359e"/>
      <stop offset="0.724" stop-color="#ce37a4"/>
      <stop offset="0.789" stop-color="#ac3cb4"/>
      <stop offset="0.877" stop-color="#7544cf"/>
      <stop offset="0.98" stop-color="#2b4ff2"/>
    </radialGradient>
  </defs>
  <path id="Path_20" data-name="Path 20" d="M40.234,50.91H17.676A8.7,8.7,0,0,1,9,42.234V19.676A8.7,8.7,0,0,1,17.676,11H40.234a8.7,8.7,0,0,1,8.676,8.676V42.234A8.7,8.7,0,0,1,40.234,50.91Z" transform="translate(-9 -11)" fill="url(#radial-gradient)"/>
  <path id="Path_21" data-name="Path 21" d="M29.749,19.6c3.991,0,4.425,0,5.986.087a9.629,9.629,0,0,1,2.776.521,4.987,4.987,0,0,1,2.863,2.863A9.629,9.629,0,0,1,41.9,25.85v5.9c0,3.991,0,4.425-.087,5.986a9.629,9.629,0,0,1-.521,2.776,4.987,4.987,0,0,1-2.863,2.863,9.629,9.629,0,0,1-2.776.521h-5.9c-3.991,0-4.425,0-5.986-.087a9.629,9.629,0,0,1-2.776-.521,4.987,4.987,0,0,1-2.863-2.863,9.629,9.629,0,0,1-.521-2.776v-5.9c0-3.991,0-4.425.087-5.986a9.629,9.629,0,0,1,.521-2.776,4.987,4.987,0,0,1,2.863-2.863A9.629,9.629,0,0,1,23.85,19.6h5.9m0-2.6c-3.991,0-4.512,0-6.073.087a11.7,11.7,0,0,0-3.557.694,6.254,6.254,0,0,0-2.6,1.735,9.738,9.738,0,0,0-1.735,2.6,11.7,11.7,0,0,0-.694,3.557C15,27.238,15,27.758,15,31.749s0,4.512.087,6.073a11.7,11.7,0,0,0,.694,3.557,6.254,6.254,0,0,0,1.735,2.6,8.543,8.543,0,0,0,2.6,1.735,11.7,11.7,0,0,0,3.557.694c1.562.087,2.082.087,6.073.087s4.512,0,6.073-.087a11.7,11.7,0,0,0,3.557-.694,6.254,6.254,0,0,0,2.6-1.735,8.543,8.543,0,0,0,1.735-2.6,11.7,11.7,0,0,0,.694-3.557c.087-1.562.087-2.082.087-6.073s0-4.512-.087-6.073a11.7,11.7,0,0,0-.694-3.557,6.254,6.254,0,0,0-1.735-2.6,9.738,9.738,0,0,0-2.6-1.735,11.7,11.7,0,0,0-3.557-.694C34.261,17,33.74,17,29.749,17Z" transform="translate(-9.794 -11.794)" fill="#fff"/>
  <path id="Path_22" data-name="Path 22" d="M30.808,25a7.808,7.808,0,1,0,7.808,7.808A7.776,7.776,0,0,0,30.808,25Zm0,13.014a5.206,5.206,0,1,1,5.206-5.206A5.221,5.221,0,0,1,30.808,38.014Z" transform="translate(-10.854 -12.854)" fill="#fff"/>
  <ellipse id="Ellipse_3" data-name="Ellipse 3" cx="1.735" cy="1.735" rx="1.735" ry="1.735" transform="translate(26.028 10.411)" fill="#fff"/>
</svg>
