<svg xmlns="http://www.w3.org/2000/svg" xmlns:xlink="http://www.w3.org/1999/xlink" width="39.741" height="39.91" viewBox="0 0 39.741 39.91">
  <defs>
    <linearGradient id="linear-gradient" x1="0.079" y1="0.218" x2="0.786" y2="0.922" gradientUnits="objectBoundingBox">
      <stop offset="0" stop-color="#fff"/>
      <stop offset="0.391" stop-color="#d6e0e9"/>
      <stop offset="1" stop-color="#fff"/>
    </linearGradient>
    <linearGradient id="linear-gradient-2" x1="0.236" y1="0.08" x2="0.663" y2="0.984" gradientUnits="objectBoundingBox">
      <stop offset="0" stop-color="#2ecc75"/>
      <stop offset="1" stop-color="#0b964a"/>
    </linearGradient>
  </defs>
  <g id="whatsapp" transform="translate(0 0)">
    <path id="Path_14" data-name="Path 14" d="M37.513,9.8A19.794,19.794,0,0,0,6.157,33.311L3.6,42.658A.99.99,0,0,0,4.8,43.877L14.4,41.362A19.793,19.793,0,0,0,37.513,9.8Z" transform="translate(-3.562 -4)" fill="url(#linear-gradient)"/>
    <path id="Path_15" data-name="Path 15" d="M34.607,12.787A15.628,15.628,0,0,0,10.316,32.14l.372.591L9.109,38.495l5.915-1.551.571.339a15.6,15.6,0,0,0,7.953,2.177h.006A15.628,15.628,0,0,0,34.607,12.787Z" transform="translate(-3.605 -4.041)" fill="url(#linear-gradient-2)"/>
    <path id="Path_16" data-name="Path 16" d="M28.739,33.685A14.113,14.113,0,0,1,23.7,32.367a19.224,19.224,0,0,1-8.381-7.312l-.076-.112A9.947,9.947,0,0,1,13.133,19.5a6.162,6.162,0,0,1,1.82-4.5l.084-.09A2.7,2.7,0,0,1,17.02,14c.365,0,.675,0,.944.012a2,2,0,0,1,1.917,1.4h0c.248.553.669,1.589,1,2.4.211.522.382.946.435,1.059a1.821,1.821,0,0,1,.036,1.7l-.064.132a3.6,3.6,0,0,1-.539.855l-.233.279c-.16.2-.322.389-.465.54A12.933,12.933,0,0,0,22.357,25.2a11.189,11.189,0,0,0,3.2,2.019c.126.054.231.1.314.141.4-.465,1.062-1.259,1.289-1.6a1.718,1.718,0,0,1,2.218-.616c.563.2,3.29,1.561,3.317,1.573l.253.124a2.22,2.22,0,0,1,1.052.8,4.416,4.416,0,0,1-.191,3.075c-.529,1.488-2.8,2.778-4.014,2.886l-.224.024A6.948,6.948,0,0,1,28.739,33.685ZM17.176,15.98a.726.726,0,0,0-.679.267l-.1.108A4.211,4.211,0,0,0,15.112,19.5a8.156,8.156,0,0,0,1.715,4.258c.027.036.07.1.134.192a17.252,17.252,0,0,0,7.467,6.577c3.351,1.322,4.211,1.222,4.908,1.14l.275-.03a3.935,3.935,0,0,0,2.328-1.578,4.766,4.766,0,0,0,.284-1.361l-.142-.066-.28-.138c-.631-.317-2.752-1.353-3.1-1.48-.438.6-1.25,1.55-1.465,1.8a1.676,1.676,0,0,1-2.207.351c-.065-.033-.154-.07-.265-.119a13.207,13.207,0,0,1-3.726-2.357,15.137,15.137,0,0,1-2.81-3.494,1.636,1.636,0,0,1,.362-2.159c.119-.119.254-.288.393-.455l.259-.311a1.728,1.728,0,0,0,.264-.437l.035-.07c-.091-.2-.275-.653-.5-1.2-.32-.789-.729-1.8-.969-2.334h0a1.164,1.164,0,0,0-.137-.243c0,.015-.029.016-.057.014C17.661,15.98,17.421,15.98,17.176,15.98ZM32.218,28.472ZM19.578,19.68Z" transform="translate(-3.656 -4.098)" opacity="0.05"/>
    <path id="Path_17" data-name="Path 17" d="M28.74,33.2a13.836,13.836,0,0,1-4.851-1.289,18.722,18.722,0,0,1-8.152-7.128l-.086-.127A9.454,9.454,0,0,1,13.633,19.5a5.7,5.7,0,0,1,1.686-4.157l.088-.1a2.207,2.207,0,0,1,1.618-.749c.373,0,.66,0,.922.012a1.526,1.526,0,0,1,1.487,1.1h0c.247.549.664,1.578.991,2.385.223.55.4.992.448,1.086a1.36,1.36,0,0,1,.039,1.263l-.066.135a3.114,3.114,0,0,1-.47.751l-.24.286c-.171.208-.343.415-.491.563-.214.213-.214.213-.129.358a13.569,13.569,0,0,0,2.516,3.134,11.61,11.61,0,0,0,3.33,2.1c.143.061.256.112.341.154.29.145.32.115.423,0,.285-.325,1.157-1.351,1.449-1.789a1.218,1.218,0,0,1,1.638-.427c.5.182,3.009,1.423,3.264,1.551l.259.127a1.816,1.816,0,0,1,.844.608,4.088,4.088,0,0,1-.233,2.655c-.483,1.358-2.62,2.473-3.593,2.56l-.237.026A6.106,6.106,0,0,1,28.74,33.2ZM17.166,15.49h-.077a1.253,1.253,0,0,0-.953.428l-.1.1a4.721,4.721,0,0,0-1.418,3.48,8.464,8.464,0,0,0,1.814,4.555c.025.033.063.089.12.172a17.752,17.752,0,0,0,7.7,6.761c3.471,1.368,4.4,1.259,5.146,1.171l.264-.029a4.31,4.31,0,0,0,2.749-1.906,4.166,4.166,0,0,0,.293-1.859c.007.006-.23-.1-.4-.18l-.273-.135c-.617-.31-2.779-1.367-3.157-1.505-.356-.129-.357-.132-.475.046-.346.516-1.307,1.641-1.527,1.891a1.229,1.229,0,0,1-1.613.234c-.071-.036-.169-.077-.29-.13a12.743,12.743,0,0,1-3.594-2.274,14.592,14.592,0,0,1-2.712-3.374,1.172,1.172,0,0,1,.284-1.559c.129-.129.277-.31.427-.492l.253-.3a2.2,2.2,0,0,0,.333-.542l.069-.142c.049-.1.057-.187-.04-.379-.051-.1-.243-.572-.478-1.156-.323-.8-.734-1.811-.977-2.351h0c-.227-.5-.359-.51-.626-.52C17.677,15.49,17.424,15.49,17.166,15.49Z" transform="translate(-3.661 -4.103)" opacity="0.07"/>
    <path id="Path_18" data-name="Path 18" d="M18.987,15.823c-.352-.782-.722-.8-1.058-.812-.274-.012-.587-.011-.9-.011a1.727,1.727,0,0,0-1.253.588,5.265,5.265,0,0,0-1.645,3.917,9.134,9.134,0,0,0,1.918,4.858c.235.313,3.25,5.208,8.025,7.091,3.968,1.565,4.776,1.254,5.637,1.175A4.742,4.742,0,0,0,32.883,30.4a3.934,3.934,0,0,0,.274-2.233c-.118-.2-.431-.313-.9-.549s-2.78-1.371-3.21-1.528-.744-.235-1.058.236-1.213,1.528-1.487,1.841-.549.354-1.018.118a12.858,12.858,0,0,1-3.778-2.331A14.153,14.153,0,0,1,19.093,22.7c-.274-.469-.03-.724.206-.959.211-.211.469-.549.705-.823a3.213,3.213,0,0,0,.469-.783.864.864,0,0,0-.04-.823C20.318,19.075,19.4,16.752,18.987,15.823Z" transform="translate(-3.666 -4.108)" fill="#fff" fill-rule="evenodd"/>
  </g>
</svg>
